<?xml version="1.0"?>
<svg width="300" height="250" xmlns="http://www.w3.org/2000/svg" xmlns:svg="http://www.w3.org/2000/svg">
 <!-- Created with SVG-edit - https://github.com/SVG-Edit/svgedit-->
 <title>packing-system</title>

 <g class="layer">
  <title>Layer 1</title>
  <path d="m26,53c0.52084,-1.02084 0.96535,-1.86171 1.5,-2.47916c0.56524,-0.6528 1.23361,-1.25701 1.98534,-1.72084c0.70492,-0.43496 1.71956,-0.89025 2.30399,-1.2c0.73188,-0.3879 1.55364,-1.04431 2.37733,-1.6c0.64641,-0.43609 1.23739,-0.7009 2.23334,-1.2c0.79964,-0.40072 1.59528,-0.80972 2.41067,-1.2c0.64287,-0.3077 1.60433,-0.71882 2.42533,-0.98934c0.57046,-0.18796 1.76218,-0.45931 2.655,-0.55799c0.83553,-0.09236 1.78133,-0.20585 2.58816,-0.55267c0.84854,-0.36475 1.58859,-0.40052 2.52084,-0.83334c0.64247,-0.29828 1.36934,-1.05976 2.20016,-1.64516c0.59023,-0.41588 1.24693,-0.74194 2.22117,-1.12133c0.79629,-0.31009 1.61665,-0.58846 2.65734,-0.77884c0.69111,-0.12643 1.61374,-0.16727 2.60666,-0.40666c0.84388,-0.20346 1.4192,-0.41908 2.61483,-0.81467c0.60436,-0.19996 1.53417,-0.5055 2.18518,-0.7c1.03341,-0.30876 1.76733,-0.5 2.51466,-0.7c0.74733,-0.2 2.18015,-0.59413 2.83833,-0.8c0.62176,-0.19448 1.48508,-0.47565 2.47634,-0.9c0.88418,-0.37851 1.67526,-0.82141 2.48533,-1.18934c0.59305,-0.26935 1.6035,-0.50357 2.4,-0.63599c1.00542,-0.16716 1.81811,-0.50204 2.48533,-0.776c0.99472,-0.40844 1.81897,-0.6872 2.63066,-0.99867c1.00554,-0.38587 1.67908,-0.71151 2.36802,-1c0.99183,-0.41535 1.78782,-0.70401 2.54666,-0.91467c0.95132,-0.2641 1.93736,-0.44858 2.59466,-0.71066c1.0101,-0.40276 1.78423,-0.40209 2.67467,-0.59551c0.84636,-0.18383 1.59712,-0.88142 2.5,-0.97916c0.69824,-0.07559 1.52614,-0.45639 2.2955,-0.94733c0.70532,-0.45009 0.985,-1.45609 1.7045,-1.88601c0.77046,-0.46037 1.28091,-1.12387 2.16667,-1.16666c0.93208,-0.04504 1.59689,-0.31116 2.18599,-0.94733c0.53299,-0.57559 1.16817,-1.05267 1.94734,-1.40534l0.79984,-0.526l0.81616,-0.40533" fill="none" id="svg_3" stroke="#000000" stroke-width="5"/>
  <path d="m58,68c0.33334,-1 0.85612,-1.46489 1.688,-1.71466c0.97323,-0.29222 1.81699,-0.24614 2.628,-0.36934c1.0072,-0.15301 1.66845,-0.42572 2.684,-0.916c0.60774,-0.2934 1.4493,-0.71951 2.4215,-1.10001c0.80829,-0.31634 1.3881,-0.50317 2.5785,-0.89999c0.6008,-0.20027 1.51584,-0.50001 2.15717,-0.64284c1.00274,-0.22331 2.09995,-0.30516 2.86367,-0.35716c0.78361,-0.05336 1.98175,-0.15041 2.77783,-0.28534c0.79359,-0.13451 1.56777,-0.31595 2.316,-0.51599c1.06731,-0.28534 1.72951,-0.4814 2.63866,-0.79868c1.08738,-0.37947 1.79329,-0.69197 2.436,-1c1.01698,-0.48738 1.61221,-0.82057 2.496,-1.19999c0.989,-0.42461 1.55867,-0.56934 2.362,-0.95717c1.05852,-0.51103 1.71395,-1.07151 2.142,-1.4175c1.00449,-0.8119 1.62206,-1.19877 2.26784,-1.578c0.96526,-0.56683 1.49466,-0.90132 2.3175,-1.422c0.54078,-0.34219 1.53336,-0.95243 2.41466,-1.41466c0.80478,-0.42211 1.61067,-0.81067 2.21067,-1.11067c1,-0.5 1.6,-0.8 2.6,-1.3c0.60001,-0.3 1.4,-0.7 2.4,-1.2c0.6,-0.3 1.59307,-0.81449 2.20001,-1.0955c0.79141,-0.36643 1.80348,-0.59745 2.59999,-0.72983c1.00508,-0.16705 1.7603,-0.52779 2.63333,-0.80801c0.84706,-0.27189 1.47588,-0.78774 2.36534,-1.08132c0.92279,-0.30459 1.84039,0.06621 2.5585,-0.19967c0.80416,-0.29774 1.40975,-1.07898 2.07616,-1.71901c0.65909,-0.63298 1.48798,-1.04644 2.1875,-1.16666c0.9789,-0.16823 1.76317,-0.4739 2.57918,-0.716c0.97981,-0.2907 1.76997,-0.26469 2.64732,-0.63667c0.95511,-0.40495 1.57958,-0.58062 2.586,-0.64733c0.8822,-0.05847 1.3819,-0.93911 2.26668,-1c0.89787,-0.06179 1.73332,0 2.54733,0l-0.222,0.036" fill="none" id="svg_4" stroke="#000000" stroke-width="5"/>
  <path d="m27,54c0,1.70984 0,2.51733 0,3.38533c0,0.948 0,1.87601 0,2.6665c0,1.027 0,1.73351 0,2.458c0,1.13301 0,1.8 0,2.8755c0,0.73201 0,1.79317 0,2.77867c0,0.62534 0,1.836 0,2.43601c0,0.89999 0,1.79999 0,2.69999c0,0.9 0,1.80001 0,2.7c0,0.89549 0,1.76401 0,2.83333c0,0.7095 0,1.56216 0,2.56801c0,0.83465 0,1.76533 0,2.56483c0,0.91649 0,1.60584 0,2.77632c0,0.85834 0,1.73668 0,2.595c0,1.16251 0,1.80651 0,2.60001c0,1.0625 0,1.85184 0,2.89583c0,0.828 0,1.7095 0,2.42801c0,0.79049 0,2.05465 0,2.73866c0,1.16667 0,1.95267 0,2.5c0,0.81599 0,2.04733 0,2.72533c0,1.19601 0,2 0,2.822c0,1.03118 0,1.71668 0,2.55133c0,1.00135 0,1.80134 0,2.80134c0,0.8 0,1.8 0,2.6c0,1 0,1.8 0,2.60001c0,1 0,1.79998 0,2.79866c0,0.76533 0,1.84416 0,2.70134c0,0.89999 0,1.81599 0,2.60449c0,0.89551 0,1.7955 0,2.69549c0,0.90001 -0.09637,1.82328 0.16666,2.76668c0.19006,0.68163 0.73932,1.65577 0.82267,2.45867c0.08881,0.85547 0.01067,1.58532 0.01067,2.57449c0,0.96417 0,1.91617 0,2.68417c0,0.94133 0,1.63201 0,2.70534c0,0.91066 0,1.81066 0,2.71517c0,0.86216 0.13358,1.74034 -0.22134,2.67399c-0.25074,0.65962 -0.76824,1.52132 -0.77866,2.43216c-0.01041,0.91062 0,1.76401 0,2.70534c0,0.768 0,1.72 0,2.48534c0,0.99867 0,1.79866 0,2.79733c0,0.76533 0,1.71733 0,2.768c0,0.66933 0,1.43467 0,2.43784c0,0.85266 0,1.81683 0,2.62082c0,0.822 0,1.85333 0,2.77467c0,0.68401 -0.02109,1.68485 0.02084,2.5c0.04204,0.81746 0.33382,2.03761 0.55383,2.65334c0.34311,0.96023 0.13212,2.0005 0.42983,2.79399c0.26624,0.70961 0.87937,1.494 1.2795,2.25267c0.45272,0.85838 0.53003,1.52685 0.752,2.40001c0.21921,0.86227 0.92128,1.59698 0.964,2.5c0.04253,0.89898 0,1.69998 0,2.61465c0,0.896 0,1.78534 0,2.68534l0,0.8955l0.00017,0.92585l0.3525,0.72598" fill="none" id="svg_5" stroke="#000000" stroke-width="5"/>
  <path d="m59,72c0,1.04167 0,2 0,2.8c0,0.80001 0,1.80001 0,2.59999c0,1.00135 0,1.836 0,2.76668c0,0.7905 0,1.644 0,2.83333c0,0.60001 0,1.5 0,2.39999c0,0.90018 0,1.81067 0,2.75718c0,1.0095 0,1.72816 0,2.47883c0,0.77466 0,1.56534 0,2.76383c0,0.79567 0,1.57934 0,2.71484c0,1.06383 0,1.72817 0,2.67467c0,0.60933 0,1.81199 0,2.73149c0,0.63634 0,2.00067 0,2.73634c0,0.76366 0,1.54733 0,2.74283c0,0.80133 0,1.61067 0,2.436c0,0.84934 0,1.73067 0,2.648c0,0.94133 0,1.416 0,2.36333c0,1.386 0,2.26867 0,3.12733c0,0.42534 0,1.278 0,2.59201c0,0.91733 0,1.85866 0,2.33333c0,0.94733 0,2.33333 0,3.21466c0,0.42818 0,1.26451 0,2.08084c0,1.2045 0,2.0045 0,2.80451c0,0.79998 0,1.59999 0,2.79982c0,0.79567 0,1.57934 0,2.71484c0,1.06383 0,1.72816 0,2.67467c0,0.60933 0,1.81067 0,2.71066c0,0.60001 0,1.8 0,2.7c0,0.6 0.01,1.80011 -0.0045,2.69999c-0.00967,0.60015 -0.04248,1.50698 -0.2795,2.70134c-0.12175,0.61354 -0.39831,1.55001 -0.54933,2.56534c-0.10602,0.71275 -0.14393,1.44769 -0.16217,2.5235c-0.01655,0.97636 -0.0045,1.8 -0.0045,2.758c0,0.97317 0,1.77716 0,2.59916c0,1.03133 0,1.72734 0,2.63668c0,1 0,1.81599 0,2.63198c0,1 0.00268,1.90934 0,2.85068c-0.00225,0.79051 -0.0121,1.64649 -0.08533,2.23467c-0.14997,1.20439 -0.43841,2.07205 -0.63067,2.91333c-0.22686,0.99264 -0.27867,1.83862 -0.284,2.8c-0.00491,0.88531 -0.00185,1.68533 0,2.52133c0.00225,1.01666 -0.01578,1.73865 0.35267,2.61133c0.40351,0.95572 0.62933,1.57751 0.64733,2.58601c0.01539,0.862 0,1.80948 0,2.6875c0,0.87915 0,1.77915 0,2.67917c0,0.89981 -0.17419,1.83838 0.08534,2.60132c0.30165,0.88675 0.89666,1.59811 0.91466,2.49866c0.01799,0.89984 0,1.80002 0,2.70001c0,0.83334 0,1.7045 0,2.60001c0,0.89999 0,1.78933 0,2.68399c0,0.88266 0,1.76867 0,2.66333c0,0.854 -0.05717,1.69549 -0.83334,2.21933l-0.16666,0.83334l0,0.79999l0,0.91467" fill="none" id="svg_6" stroke="#000000" stroke-width="5"/>
  <path d="m35,194c0.42533,1.82535 0.83522,2.49112 0.97916,3.47916c0.13279,0.91143 -0.09027,1.86517 0.30484,2.72216c0.33873,0.73472 0.68937,1.62363 0.71466,2.31467c0.03524,0.96277 0.54454,1.68729 0.87984,2.58402c0.31808,0.85064 0.23918,1.68106 0.69617,2.5c0.43121,0.77273 0.92515,1.38955 1.87199,1.39999c0.87462,0.00961 1.72801,0 2.66801,0c0.88533,0 1.764,0 2.58983,0c0.8955,0 1.7955,0 2.68483,0c0.896,0 1.81067,0 2.71067,0c0.9,0 1.70018,-0.01801 2.6,0c0.90054,0.018 1.7,0.42532 2.5,0.91467l0.9,0.08533" fill="none" id="svg_7" stroke="#000000" stroke-width="5"/>
  <path d="m68,206c1.85733,-0.44665 2.51929,-0.76074 3.33334,-1.16666c0.98153,-0.48941 1.70832,-0.85418 2.08799,-1.044c0.78134,-0.39066 1.98109,-0.98474 2.77867,-1.39383c0.80246,-0.41159 1.20875,-0.61627 2,-1.08084c1.21386,-0.71274 1.59817,-1.00012 2.40001,-1.52933c0.79817,-0.52679 1.17169,-0.82837 2.39999,-1.45199c0.78212,-0.3971 1.58572,-0.6728 2.364,-0.91202c0.74736,-0.22971 1.81453,-0.52234 2.82133,-0.82132c0.6758,-0.20069 1.38137,-0.41049 2.55733,-0.70017c0.86081,-0.21203 1.31145,-0.29721 2.20668,-0.53583c0.88626,-0.23623 2.11736,-0.66458 2.83183,-1.01669c0.66606,-0.32825 1.24295,-0.711 2.29734,-1.32581c0.67941,-0.39614 1.52324,-0.81411 2.32283,-1.22283c0.83792,-0.42832 1.7675,-0.96183 2.28267,-1.28269c0.81948,-0.5104 1.35534,-0.87652 2.3945,-1.49466c0.68039,-0.40472 1.34138,-0.74096 2.12149,-1.34265c0.62048,-0.47857 1.37599,-1.22815 2.19867,-1.79333c0.56497,-0.38816 1.46365,-0.85001 2.0805,-1.38535c0.75887,-0.6586 1.32083,-1.29999 1.92082,-1.89999c0.70001,-0.70001 1.30001,-1.30001 1.90001,-1.90001c0.7,-0.7 1.27966,-1.30631 2.09999,-1.67467c0.78404,-0.35206 1.4655,-0.85879 2.25717,-1.32533c0.73027,-0.43036 1.57663,-0.74106 2.30117,-1.2c0.84392,-0.53456 1.35664,-1.24956 1.95767,-1.784c0.64607,-0.57447 1.2113,-1.12487 2.084,-1.54933c0.75392,-0.36668 1.42238,-0.85283 2.3,-1.10951c0.86428,-0.25278 1.69269,-0.2758 2.46167,-0.7045c0.82115,-0.45778 1.6254,-0.30584 2.48116,-0.70532c0.91121,-0.42537 1.75717,-0.64734 2.55717,-0.64734c0.9,0 1.80001,-0.03599 2.59999,-0.436l0.69985,-0.664l0.46415,-0.5l0.41518,-0.87917" fill="none" id="svg_8" stroke="#000000" stroke-width="5"/>
  <path d="m135,39c0.64734,0.7045 0.98958,1.52067 1,2.48534c0.00783,0.72528 0,1.71466 0,2.51466c0,1 0,1.8 0,2.6c0,1.0045 0,1.85717 0,2.8215c0,0.8145 0.0042,1.68301 -0.00017,2.87866c-0.00221,0.60436 -0.01805,1.53743 -0.08516,2.18518c-0.10771,1.03967 -0.26657,1.77746 -0.4355,2.55633c-0.17811,0.82121 -0.48257,2.12427 -0.67784,3.03966c-0.09856,0.46197 -0.29065,1.37517 -0.44417,2.25166c-0.20399,1.16472 -0.31941,2.09454 -0.34649,2.83501c-0.03772,1.03136 -0.01067,1.832 -0.01067,2.832c0,0.78934 0.00061,1.83333 0,2.62534c-0.00067,0.86 0.0302,1.60005 -0.22133,2.57499c-0.2214,0.85819 -0.54321,1.56323 -0.69467,2.769c-0.08655,0.68907 -0.08661,1.41818 -0.168,2.14801c-0.15646,1.40286 -0.34883,2.04492 -0.49066,2.672c-0.27312,1.20749 -0.38666,2.10084 -0.41467,2.93866c-0.03138,0.93821 -0.01067,1.73033 -0.01067,2.67199c0,0.90001 0,1.80135 0,2.76668c0,0.66933 0,1.83333 0,2.63333c0,0.80001 0,1.80001 0,2.59999c0,1 0,1.80001 0,2.79984c0,0.77934 0,1.6335 0,2.49567c0,0.9405 0,1.78984 0,2.709c0,0.99684 0,1.61633 0,2.76217c0,0.786 0,1.60801 0,2.66666c0,0.7095 0,1.56216 0,2.56667c0,0.8 0,1.8 0,2.6c0,1 0,1.8 0,2.60001c0,0.9955 0,1.74282 0,2.77465c0,0.94684 0,1.836 0,2.82534c0,0.8 0,1.8 0,2.6c0,0.80001 0,1.79551 0,2.54283c0,0.9045 -0.03018,1.82505 0.02083,2.71967c0.04056,0.71127 0.26393,1.90802 0.40451,2.6095c0.15013,0.74917 0.3229,1.52673 0.45315,2.72767c0.08561,0.78931 0.10756,1.55854 0.11701,2.286c0.01652,1.27139 0.00412,2.05299 0.0045,2.7625c0.00067,1.23449 -0.04918,2.04033 0.08533,2.7825c0.17684,0.97581 0.82963,1.75673 0.91334,2.56933c0.09221,0.89527 0.00133,1.80001 0.00133,2.7c0,0.89999 -0.15492,1.82153 0.05716,2.60983c0.2174,0.80811 0.84927,1.71204 0.93217,2.47951c0.09781,0.90546 -0.05179,1.8414 0.232,2.732c0.22275,0.69902 0.61863,1.66706 0.83134,2.43133c0.25437,0.91394 0.71158,1.56438 0.89017,2.49466c0.17366,0.9046 0.05707,1.75267 0.05716,2.731c0.00009,0.90033 0.5,1.5425 0.94284,2.32167l0.05716,0.89867l0,0.57967" fill="none" id="svg_11" stroke="#000000" stroke-width="5"/>
  <path d="m104,21c0.7045,0.64733 1.66519,0.91763 2.39999,1.436c0.67289,0.47468 1.16237,1.21277 2.01067,1.53867c0.88077,0.33837 1.62439,0.49065 2.56784,1.12516c0.63661,0.42815 1.48555,0.74402 2.2215,1.1855c0.67862,0.4071 1.27458,1.2411 2,1.91334c0.58046,0.53789 1.41806,0.79244 2.2,1.22666c0.82046,0.45562 1.738,0.6101 2.24284,1.27917c0.56663,0.75097 0.98798,1.35805 1.44116,2.09683c0.42166,0.68737 1.38005,1.04252 2.116,1.484c0.67862,0.4071 1.3,1.19383 2.1,1.662l0.80001,0.27401l0.69999,0.49466l0.80001,0.30933" fill="none" id="svg_12" stroke="#000000" stroke-width="5"/>
  <path d="m29,53c1.672,1.02533 2.54696,1.20813 3.26133,1.436c0.79538,0.25371 1.8239,0.64919 2.71783,1.064c0.62437,0.28973 1.62084,0.8 2.22084,1.10001c1,0.5 1.59999,0.79998 2.4,1.19999c0.8,0.40001 1.60176,0.7965 2.59984,1.30001c0.59054,0.29791 1.32674,0.68325 2.17482,1.29998c0.80361,0.58439 1.47521,1.00504 2.08701,1.35718c0.96481,0.55533 1.49016,0.89681 2.313,1.4175c0.54078,0.34221 1.53336,0.95244 2.41466,1.41467c0.80477,0.4221 1.61075,0.8105 2.21067,1.11066c0.9988,0.49974 1.78983,0.86017 2.5785,1.39984c0.63313,0.43324 1.4215,0.86416 2.317,0.90466l0.7045,0.4955l0.61066,0.48933l0.8685,-0.01016" fill="none" id="svg_13" stroke="#000000" stroke-width="2"/>
  <path d="m68,73c0,1.64667 0,2.48534 0,3.40449c0,0.99685 0,1.61634 0,2.76218c0,0.7905 0,1.644 0,2.23467c0,1.19732 0.00056,2.07783 0,2.91333c-0.00067,1 0.04006,1.89161 -0.22134,2.88516c-0.15872,0.60327 -0.68464,1.6226 -0.76799,2.42551c-0.08881,0.85546 -0.01067,1.58532 -0.01067,2.57482c0,0.82067 0,1.96651 0,2.75251c0,0.822 0,1.88066 0,2.59016c0,0.85266 0.03949,1.86121 -0.036,2.69316c-0.08493,0.93596 -0.3266,1.71405 -0.53867,2.53868c-0.27142,1.05545 -0.39272,1.76242 -0.42083,2.56366c-0.03596,1.02504 -0.0045,1.96167 -0.0045,2.86301c0,0.96533 0,1.65599 0,2.57066c0,0.87084 0,1.88933 0,2.61333c0,0.73201 0,1.79317 0,2.77867c0,0.62534 0,1.836 0,2.73149c0,0.58368 0,1.41918 0,2.65184c0,0.678 0,1.87401 0,2.678c0,0.54934 -0.02515,1.85403 0.01067,2.53868c0.04377,0.83683 0.36967,1.83143 0.564,2.47198c0.35526,1.17101 0.38882,1.99048 0.45066,2.53868c0.11973,1.06131 0.42805,1.99146 0.622,2.678c0.27078,0.95851 0.33072,1.78292 0.34817,2.65184c0.02401,1.19543 -0.01056,1.80085 0.0405,2.73149c0.03568,0.65024 0.17761,1.68678 0.38933,2.78933c0.14409,0.75036 0.31636,1.48705 0.45334,2.553c0.08457,0.65816 0.07963,1.58591 0.28799,2.655c0.14115,0.72421 0.53701,1.60759 0.71201,2.58801c0.14228,0.7971 0.10885,1.63878 0.34267,2.65717c0.16005,0.69706 0.5739,1.50544 0.72149,2.5215c0.11525,0.79339 0.05717,1.80133 0.05717,2.63598c0,0.93068 0,1.71668 0,2.53868c0,1.05866 0,1.97866 0,2.73867c0,0.98666 0,1.972 0,2.69732c0,0.98951 0,1.81017 0,2.47467c0,1 0,1.8355 0,2.71601c0,1.19867 0,1.79866 0,2.69867c0,1.20016 0,1.80448 0,2.73599c0,0.64934 0,1.68516 0,2.77867c0,0.724 0,1.416 0,2.61467c0,0.94934 0.03188,1.77173 -0.01066,2.57065c-0.04273,0.80236 -0.37898,1.78735 -0.63667,2.6c-0.31288,0.9867 -0.34734,1.79999 -0.35267,2.79984c-0.00416,0.77932 0,1.77865 0,2.59884c0,0.90134 0,1.80134 0,2.68048c0,0.87803 0.00785,1.84073 0.05717,1.81183c0.78204,-0.45843 0.7382,-1.66381 1.22816,-2.49099c0.40331,-0.68085 1.08931,-1.24842 1.88134,-1.79999c0.63237,-0.4404 1.39147,-0.74469 2.208,-1.41068c0.53952,-0.44006 1.278,-1.242 1.8,-1.76397c0.80401,-0.80399 1.32268,-1.32804 1.992,-1.99201c0.66669,-0.66137 1.2074,-1.22104 2.03333,-1.81183c0.58008,-0.41491 1.39973,-0.82074 2.19999,-1.22152c0.79973,-0.40055 1.80491,-0.89023 2.38935,-1.19999c0.73187,-0.38787 1.50413,-1.11723 2.31083,-1.47866c0.74064,-0.33182 1.74668,-0.51929 2.41584,-0.92267c0.75807,-0.45699 1.34219,-1.04128 2.14566,-1.49867c0.7773,-0.44251 1.76066,-0.79697 2.55299,-1.09999c0.77666,-0.29703 1.61835,-0.73945 2.364,-1.16401c0.79799,-0.45437 1.54864,-0.84487 2.42134,-1.26933c0.65967,-0.32085 1.44908,-0.77402 2.3045,-1.114c0.82674,-0.32856 1.7179,-0.57026 2.29683,-0.854c0.99692,-0.4886 1.73897,-0.84909 2.6415,-1.146c0.85484,-0.2812 1.57271,-0.73115 2.35718,-1.078c0.83986,-0.37134 1.35194,-0.81706 2.40982,-1.27467c0.76317,-0.33013 1.30795,-0.4989 2.30617,-0.89867c0.90972,-0.36433 1.8469,-0.66618 2.63217,-0.74417c0.78798,-0.07826 2.01002,0.27361 2.68567,-0.11432c0.81645,-0.46878 1.39805,-1.06938 1.96617,-1.55351c0.74534,-0.63516 1.5491,-0.97514 2.23332,-1.556c0.66626,-0.56561 1.28259,-0.7405 2.052,-0.91866c0.97383,-0.22551 1.70813,-0.43643 2.573,-0.89384c0.62639,-0.33129 0.54167,-1.31633 0.54167,-2.24233c0,-0.87867 0,-1.66383 0,-2.6145c0,-0.76533 0,-1.7595 0,-2.67866c0,-0.86 0,-1.80667 0,-2.66001c0,-0.94 0,-1.82533 0,-2.62533c0,-0.95717 0,-1.85716 0,-2.60449c0,-0.99418 0,-1.75951 0,-2.84734c0,-0.7175 0,-1.758 0,-2.53351c0,-1.04799 0,-1.75299 0,-2.728c0,-0.86132 0,-1.808 0,-2.66133c0,-0.94133 0,-1.70933 0,-2.67199c0,-0.84 0,-1.83735 0,-2.65334c0,-0.81599 0,-1.81467 0,-2.68933c0,-1.01067 0,-1.81067 0,-2.81067c0,-0.78934 0,-1.51466 0,-2.5c0,-0.98534 0,-1.71066 0,-2.70017c0,-0.82066 0.00948,-1.96661 -0.0045,-2.7525c-0.00973,-0.54748 -0.01002,-1.38092 -0.34816,-2.59016c-0.18408,-0.6583 -0.5677,-1.653 -0.62651,-2.45717c-0.07295,-0.99756 -0.02083,-1.81067 -0.02083,-2.68533c0,-0.99868 0,-1.81467 0,-2.63066c0,-0.99868 0,-1.87334 0,-2.88384c0,-0.77934 0.11517,-1.64799 -0.05716,-2.55284c-0.17883,-0.93895 -0.59656,-1.47635 -0.82133,-2.66882c-0.09995,-0.53019 -0.11617,-1.38915 -0.12151,-2.57851c-0.00401,-0.89548 0,-1.47917 0,-2.31467c0,-1.22816 0.01297,-1.87475 -0.00017,-2.88533c-0.01039,-0.8002 -0.15223,-1.80476 -0.42517,-2.6c-0.2763,-0.80507 -0.542,-1.79877 -0.57016,-2.59999c-0.03511,-0.99939 -0.0045,-1.80001 -0.0045,-2.80001c0,-0.8 0.03188,-1.80107 -0.01066,-2.6c-0.04273,-0.80234 -0.36327,-1.79743 -0.564,-2.43599c-0.28967,-0.9215 -0.38727,-1.71582 -0.41467,-2.53868c-0.03524,-1.05812 -0.01067,-1.98934 -0.01067,-2.82399c0,-0.99684 0,-1.74417 0,-2.76534c0,-0.936 0,-1.83467 0,-2.69734c0,-0.82132 0,-1.62666 0,-2.62399c0,-0.8355 0,-1.41918 0,-2.6145c0,-0.8895 0,-1.743 0,-2.77851c0,-0.67499 0.34525,-1.86044 -0.05716,-2.56c-0.46817,-0.81387 -0.94284,-1.36166 -0.94284,-2.16166c0,-0.9 0.00176,-2.10954 -0.76167,-2.13833c-0.948,-0.03576 -1.49336,0.57046 -2.405,1.105c-0.80711,0.47325 -1.38318,0.85835 -2.05216,1.18067c-1.09535,0.52772 -1.945,0.78189 -2.83183,1.00599c-0.44739,0.11305 -1.34016,0.31203 -2.61601,0.48c-0.76071,0.10016 -1.79871,0.14693 -2.42433,0.2765c-1.22777,0.25429 -1.80593,0.59269 -2.38817,0.89017c-0.83759,0.42795 -1.83336,0.84869 -2.74616,1.01466c-0.93815,0.1706 -1.73768,0.33783 -2.62133,0.59601c-0.641,0.18729 -1.67272,0.49665 -2.40601,0.68483c-0.74542,0.1913 -1.48766,0.3947 -2.92566,0.583c-0.65752,0.08609 -1.57495,0.11616 -2.655,0.1215c-0.70949,0.00351 -1.56216,0 -2.56666,0c-0.80001,0 -1.80448,-0.0665 -2.57918,0.02083c-1.01284,0.11418 -1.54982,0.73457 -2.52083,0.95834c-0.87755,0.20223 -1.68405,0.32993 -2.38533,0.82216c-0.75414,0.52935 -1.36189,0.78472 -2.31467,1.52017c-0.62567,0.48296 -1.20112,1.08187 -1.99983,1.87833c-0.39624,0.39511 -0.96417,0.96417 -1.77867,1.77867c-0.61084,0.61084 -1.21698,1.22605 -1.8215,1.8215c-0.69485,0.68444 -1.5,1.14733 -2.3,1.42133l-0.7,0.49468l-0.8,0.30932" fill="none" id="svg_16" stroke="#bf00bf" stroke-width="2"/>
  <ellipse cx="46" cy="186.5" fill="none" id="svg_30" rx="14" ry="20.500001" stroke="#00bf5f" stroke-width="2" transform="rotate(-8.01709, 46, 186.5)"/>
  <ellipse cx="120.192596" cy="149.21521" fill="none" id="svg_31" rx="14" ry="20.500001" stroke="#00bf5f" stroke-width="2" transform="rotate(-8.01709, 120.193, 149.215)"/>
  <line fill="none" id="svg_32" stroke="#00bf5f" stroke-width="2" x1="44" x2="118" y1="164" y2="128"/>
  <line fill="none" id="svg_33" stroke="#00bf5f" stroke-width="2" x1="48" x2="124" y1="208" y2="167"/>
  <ellipse cx="40.670905" cy="149.289464" fill="none" id="svg_56" rx="12.159016" ry="13.428947" stroke="#ff7f00" stroke-width="2" transform="rotate(-8.01709, 40.6713, 149.29)"/>
  <ellipse cx="117.695251" cy="112.310063" fill="none" id="svg_55" rx="10.108828" ry="12.438719" stroke="#ff7f00" stroke-width="2" transform="rotate(-8.01709, 117.695, 112.311)"/>
  <line fill="none" id="svg_54" stroke="#ff7f00" stroke-width="2" x1="39.480087" x2="113.480087" y1="136.534653" y2="100.534653"/>
  <line fill="none" id="svg_53" stroke="#ff7f00" stroke-width="2" x1="43.480087" x2="119.480087" y1="164.534653" y2="123.534653"/>
  <line fill="none" id="svg_59" stroke="#000000" stroke-dasharray="5,5" stroke-width="3" x1="11" x2="146.99999" y1="151.999998" y2="85.000002"/>
  <ellipse cx="40.670905" cy="119.289464" fill="none" id="svg_64" rx="12.159016" ry="13.428947" stroke="#00bfbf" stroke-width="2" transform="rotate(-8.01709, 40.6709, 119.289)"/>
  <ellipse cx="117.695251" cy="82.310063" fill="none" id="svg_63" rx="10.108828" ry="12.438719" stroke="#00bfbf" stroke-width="2" transform="rotate(-8.01709, 117.695, 82.3101)"/>
  <line fill="none" id="svg_62" stroke="#00bfbf" stroke-width="2" x1="39.480087" x2="113.480087" y1="106.534653" y2="70.534653"/>
  <line fill="none" id="svg_61" stroke="#00bfbf" stroke-width="2" x1="43.480087" x2="119.480087" y1="134.534653" y2="93.534653"/>
  <ellipse cx="39.294715" cy="92.058675" fill="none" id="svg_70" rx="12.159016" ry="13.428947" stroke="#bf0000" stroke-width="2" transform="rotate(-8.01709, 39.2947, 92.0587)"/>
  <ellipse cx="116.319061" cy="55.079274" fill="none" id="svg_69" rx="10.108828" ry="12.438719" stroke="#bf0000" stroke-width="2" transform="rotate(-8.01709, 116.319, 55.0793)"/>
  <line fill="none" id="svg_68" stroke="#bf0000" stroke-width="2" x1="38.103897" x2="112.103897" y1="79.303864" y2="43.303864"/>
  <line fill="none" id="svg_67" stroke="#bf0000" stroke-width="2" x1="42.103897" x2="118.103897" y1="107.303864" y2="66.303864"/>
  <ellipse cx="38.791895" cy="68.488648" fill="none" id="svg_74" rx="12.159016" ry="9.823685" stroke="#005fbf" stroke-width="2" transform="rotate(-8.01709, 38.7919, 68.4886)"/>
  <ellipse cx="115.835693" cy="31.647357" fill="none" id="svg_73" rx="10.108828" ry="8.972927" stroke="#005fbf" stroke-width="2" transform="rotate(-8.01709, 115.836, 31.6473)"/>
  <line fill="none" id="svg_72" stroke="#005fbf" stroke-width="2" x1="38.103897" x2="112.103897" y1="59.303864" y2="23.303864"/>
  <line fill="none" id="svg_71" stroke="#005fbf" stroke-width="2" x1="42.103898" x2="121.103896" y1="78.303863" y2="40.303863"/>
  <path d="m173.82366,43.10415c0.52083,-1.02083 0.96535,-1.86171 1.5,-2.47916c0.56524,-0.6528 1.23361,-1.25701 1.98533,-1.72083c0.70493,-0.43496 1.71957,-0.89025 2.304,-1.20001c0.73188,-0.3879 1.55364,-1.04431 2.37733,-1.6c0.64641,-0.43609 1.23739,-0.70089 2.23334,-1.19999c0.79964,-0.40073 1.59527,-0.80973 2.41067,-1.20001c0.64286,-0.3077 1.60433,-0.71882 2.42533,-0.98933c0.57045,-0.18797 1.76217,-0.45931 2.655,-0.558c0.83553,-0.09236 1.78133,-0.20584 2.58816,-0.55267c0.84853,-0.36474 1.58859,-0.40052 2.52084,-0.83333c0.64247,-0.29829 1.36934,-1.05976 2.20016,-1.64517c0.59023,-0.41588 1.24693,-0.74193 2.22117,-1.12133c0.79629,-0.31009 1.61665,-0.58845 2.65733,-0.77884c0.69112,-0.12643 1.61374,-0.16727 2.60667,-0.40666c0.84388,-0.20345 1.4192,-0.41907 2.61483,-0.81467c0.60436,-0.19996 1.53416,-0.5055 2.18517,-0.7c1.03342,-0.30876 1.76734,-0.5 2.51467,-0.7c0.74733,-0.2 2.18014,-0.59413 2.83833,-0.8c0.62176,-0.19447 1.48508,-0.47565 2.47633,-0.9c0.88418,-0.3785 1.67527,-0.82141 2.48534,-1.18933c0.59305,-0.26936 1.60349,-0.50358 2.39999,-0.636c1.00543,-0.16716 1.81812,-0.50204 2.48534,-0.776c0.99472,-0.40844 1.81897,-0.6872 2.63066,-0.99867c1.00554,-0.38587 1.67908,-0.7115 2.36801,-1c0.99184,-0.41535 1.78783,-0.704 2.54666,-0.91467c0.95133,-0.2641 1.93737,-0.44857 2.59467,-0.71066c1.0101,-0.40276 1.78422,-0.40209 2.67467,-0.5955c0.84636,-0.18384 1.59712,-0.88143 2.5,-0.97917c0.69824,-0.07559 1.52613,-0.45639 2.2955,-0.94733c0.70532,-0.45008 0.985,-1.45609 1.7045,-1.886c0.77046,-0.46038 1.28091,-1.12387 2.16667,-1.16667c0.93208,-0.04503 1.59689,-0.31116 2.18599,-0.94733c0.53299,-0.57559 1.16816,-1.05267 1.94734,-1.40534l0.79983,-0.526l0.81617,-0.40532" fill="none" id="svg_109" stroke="#000000" stroke-width="5"/>
  <path d="m205.82366,58.10415c0.33333,-1 0.85612,-1.46489 1.688,-1.71466c0.97322,-0.29222 1.81699,-0.24614 2.628,-0.36934c1.0072,-0.15301 1.66845,-0.42572 2.684,-0.916c0.60773,-0.29339 1.4493,-0.71951 2.4215,-1.1c0.80829,-0.31635 1.3881,-0.50318 2.5785,-0.9c0.6008,-0.20027 1.51584,-0.50001 2.15716,-0.64283c1.00275,-0.22332 2.09996,-0.30517 2.86367,-0.35717c0.78362,-0.05336 1.98175,-0.1504 2.77784,-0.28534c0.79358,-0.1345 1.56777,-0.31594 2.316,-0.51599c1.0673,-0.28534 1.7295,-0.4814 2.63865,-0.79867c1.08739,-0.37947 1.79329,-0.69197 2.43601,-1c1.01698,-0.48738 1.61221,-0.82057 2.496,-1.2c0.989,-0.42461 1.55867,-0.56934 2.362,-0.95717c1.05852,-0.51103 1.71394,-1.0715 2.142,-1.4175c1.00449,-0.8119 1.62205,-1.19876 2.26784,-1.578c0.96525,-0.56683 1.49466,-0.90131 2.3175,-1.422c0.54077,-0.34219 1.53336,-0.95243 2.41466,-1.41466c0.80478,-0.4221 1.61067,-0.81067 2.21066,-1.11066c1,-0.5 1.60001,-0.80001 2.60001,-1.30001c0.60001,-0.3 1.39999,-0.69999 2.39999,-1.19999c0.60001,-0.30001 1.59308,-0.81449 2.20002,-1.09551c0.79141,-0.36643 1.80348,-0.59744 2.59999,-0.72983c1.00508,-0.16705 1.7603,-0.52778 2.63333,-0.808c0.84706,-0.27189 1.47587,-0.78775 2.36534,-1.08133c0.92279,-0.30458 1.84039,0.06621 2.5585,-0.19967c0.80415,-0.29774 1.40974,-1.07898 2.07616,-1.719c0.65909,-0.63299 1.48797,-1.04645 2.1875,-1.16667c0.9789,-0.16822 1.76317,-0.4739 2.57918,-0.716c0.97981,-0.29069 1.76997,-0.26469 2.64732,-0.63667c0.95511,-0.40495 1.57958,-0.58062 2.586,-0.64733c0.8822,-0.05847 1.3819,-0.93911 2.26668,-1c0.89787,-0.06179 1.73332,0 2.54733,0l-0.222,0.03601" fill="none" id="svg_108" stroke="#000000" stroke-width="5"/>
  <path d="m182.82366,184.10415c0.42533,1.82535 0.83522,2.49112 0.97916,3.47916c0.13279,0.91144 -0.09027,1.86517 0.30483,2.72217c0.33873,0.73471 0.68938,1.62362 0.71467,2.31466c0.03524,0.96277 0.54453,1.68729 0.87984,2.58402c0.31808,0.85065 0.23918,1.68106 0.69617,2.5c0.43121,0.77273 0.92515,1.38956 1.87199,1.39999c0.87462,0.00962 1.728,0 2.66801,0c0.88533,0 1.764,0 2.58982,0c0.8955,0 1.79551,0 2.68484,0c0.896,0 1.81066,0 2.71066,0c0.90001,0 1.70019,-0.018 2.6,0c0.90055,0.01801 1.70001,0.42533 2.5,0.91468l0.9,0.08532" fill="none" id="svg_105" stroke="#000000" stroke-width="5"/>
  <path d="m215.82366,196.10415c1.85733,-0.44665 2.51928,-0.76074 3.33333,-1.16665c0.98154,-0.48941 1.70833,-0.85419 2.088,-1.04401c0.78134,-0.39065 1.98109,-0.98474 2.77866,-1.39383c0.80247,-0.41159 1.20876,-0.61627 2,-1.08084c1.21387,-0.71274 1.59818,-1.00012 2.40001,-1.52933c0.79818,-0.52679 1.1717,-0.82836 2.4,-1.45199c0.78212,-0.3971 1.58572,-0.67279 2.364,-0.91202c0.74736,-0.22971 1.81452,-0.52234 2.82133,-0.82132c0.6758,-0.20068 1.38136,-0.41049 2.55733,-0.70016c0.86081,-0.21204 1.31144,-0.29722 2.20668,-0.53583c0.88626,-0.23624 2.11735,-0.66458 2.83183,-1.0167c0.66606,-0.32824 1.24295,-0.71099 2.29733,-1.3258c0.67942,-0.39615 1.52324,-0.81412 2.32283,-1.22284c0.83793,-0.42832 1.76751,-0.96182 2.28267,-1.28268c0.81949,-0.51041 1.35535,-0.87653 2.3945,-1.49466c0.68039,-0.40473 1.34139,-0.74097 2.12149,-1.34265c0.62049,-0.47858 1.376,-1.22815 2.19867,-1.79334c0.56498,-0.38815 1.46366,-0.85001 2.08051,-1.38535c0.75886,-0.6586 1.32083,-1.29998 1.92082,-1.89999c0.70001,-0.70001 1.3,-1.3 1.90001,-1.90001c0.7,-0.7 1.27966,-1.3063 2.09999,-1.67467c0.78404,-0.35206 1.4655,-0.85879 2.25717,-1.32533c0.73027,-0.43036 1.57663,-0.74106 2.30117,-1.2c0.84391,-0.53456 1.35664,-1.24955 1.95767,-1.78399c0.64607,-0.57448 1.2113,-1.12488 2.084,-1.54933c0.75392,-0.36669 1.42238,-0.85283 2.3,-1.10952c0.86427,-0.25277 1.69269,-0.2758 2.46167,-0.70449c0.82115,-0.45778 1.6254,-0.30585 2.48116,-0.70533c0.9112,-0.42536 1.75717,-0.64733 2.55717,-0.64733c0.89999,0 1.8,-0.036 2.59999,-0.43601l0.69985,-0.664l0.46415,-0.5l0.41518,-0.87917" fill="none" id="svg_104" stroke="#000000" stroke-width="5"/>
  <path d="m251.82366,11.10415c0.7045,0.64733 1.66519,0.91764 2.39999,1.436c0.67288,0.47469 1.16237,1.21278 2.01067,1.53867c0.88077,0.33837 1.62439,0.49066 2.56784,1.12516c0.63661,0.42815 1.48555,0.74402 2.2215,1.1855c0.67861,0.4071 1.27458,1.24111 2,1.91334c0.58046,0.5379 1.41806,0.79244 2.19999,1.22666c0.82047,0.45562 1.73801,0.6101 2.24285,1.27917c0.56663,0.75098 0.98797,1.35806 1.44116,2.09683c0.42166,0.68737 1.38005,1.04252 2.116,1.484c0.67861,0.4071 1.3,1.19384 2.1,1.66201l0.8,0.274l0.7,0.49467l0.8,0.30932" fill="none" id="svg_102" stroke="#000000" stroke-width="5"/>
  <path d="m176.82366,43.10415c1.67199,1.02533 2.54696,1.20813 3.26133,1.436c0.79538,0.25371 1.8239,0.64919 2.71783,1.064c0.62437,0.28974 1.62084,0.80001 2.22083,1.10001c1,0.5 1.6,0.79999 2.40001,1.2c0.8,0.4 1.60176,0.79649 2.59983,1.3c0.59055,0.29791 1.32675,0.68326 2.17483,1.29999c0.80361,0.58438 1.47521,1.00503 2.08701,1.35717c0.96481,0.55533 1.49016,0.89681 2.31299,1.4175c0.54079,0.34221 1.53337,0.95244 2.41467,1.41467c0.80477,0.42211 1.61075,0.8105 2.21067,1.11066c0.99879,0.49974 1.78983,0.86017 2.5785,1.39984c0.63313,0.43324 1.4215,0.86417 2.317,0.90466l0.7045,0.4955l0.61066,0.48934l0.8685,-0.01016" fill="none" id="svg_101" stroke="#000000" stroke-width="2"/>
  <path d="m207,60c0.87851,1.22166 0.97281,2.16766 1.01068,2.836c0.04349,0.76773 0.37909,1.7513 0.63666,2.56399c0.31311,0.988 0.34467,1.83597 0.35266,2.76668c0.00678,0.79048 -0.01364,1.65052 0.16666,2.83333c0.09213,0.60438 0.34851,1.49648 0.48068,2.10001c0.26147,1.19378 0.31744,2.1009 0.37799,2.69999c0.12152,1.20217 0.32565,2.09592 0.47467,2.67917c0.21362,0.83611 0.44733,1.83331 0.48932,2.71016c0.04834,1.00974 0.01022,1.8315 0.01068,2.496c0.00067,0.99733 -0.06613,2.07355 0.16666,2.98134c0.18133,0.70714 0.70321,1.66172 0.77618,2.33867c0.10614,0.98502 0.05716,1.85165 0.05716,2.79199c0,0.87467 0,1.7455 0,2.46401c0,0.79049 0,2.05333 0,2.71783c0,1.02083 0,1.81017 0,2.85416c0,0.86216 0,1.76668 0,2.66667c0,0.89999 -0.09085,1.80473 0.00134,2.7c0.08368,0.8126 0.75907,1.52763 0.9415,2.45717c0.14429,0.73515 0.05716,1.7415 0.05716,2.50683c0,0.952 0.06683,1.72315 -0.01068,2.66133c-0.08399,1.01653 -0.61243,1.65801 -0.86783,2.7175c-0.16959,0.70342 -0.11923,1.509 -0.12149,2.53583c-0.00201,0.92134 0,1.60535 0,2.60535c0,0.81599 0,1.63199 0,2.63066c0,0.87466 0,1.88533 0,2.68533c0,1 0,1.78934 0,2.83333c0,0.75601 0,1.66667 0,2.57733c0,0.91101 0,1.63101 0,2.75601c0,0.786 -0.00336,1.60801 0,2.66666c0.00226,0.70502 -0.04697,1.5486 0.42532,2.53067c0.37461,0.77894 0.57468,1.636 0.57468,2.39317c0,0.9045 0,1.7045 0,2.66417c0,0.80399 0,1.62599 0,2.65732c0,0.92134 0,1.60535 0,2.60535c0,0.81599 -0.02637,1.63237 0.00449,2.86332c0.01699,0.67852 0.21115,1.87546 0.34817,2.40534c0.21317,0.82434 0.52475,1.87547 0.61133,2.80066c0.07089,0.75749 0.03601,1.72584 0.03601,2.64666c0,0.90451 0,1.76668 0,2.64168c0,0.64499 0,1.64366 0,2.47916c0,0.8805 0,2.07783 0,2.6685c0,0.8535 0,1.88917 0,2.78984c0,1.02083 0.0018,1.82083 0,2.62083c-0.00226,0.9955 0.04578,1.78605 -0.42532,2.764c-0.37519,0.77882 -0.57401,1.52133 -0.57468,2.472c-0.00055,0.76533 0,1.764 0,2.56399c0,1 0,1.8 0,2.79984c0,0.77932 0,1.77865 0,2.59884c0,0.90134 0,1.84415 0,2.70133l0,0.936l0,0.86398l0,0.89869" fill="none" id="svg_111" stroke="#000000" stroke-width="5"/>
  <path d="m280,32c0,3.54733 0,4.22533 0,5.4215c0,0.8145 0,1.38917 0,2.5785c0,0.9045 0,1.52084 0,2.48534c0,1.03633 0,1.77633 0,2.55632c0,0.82 0,2.125 0,3.04634c0,0.47817 0,1.4745 0,1.99466c0,1.08934 0,2.25067 0,2.86034c0,1.27133 0,1.929 0,2.59866c0,0.67967 0.00021,1.36733 0,3.45834c-0.00009,0.70016 0.00018,1.40135 -0.00449,2.10451c-0.00466,0.70617 -0.01345,1.41638 -0.03152,2.13148c-0.01822,0.72125 -0.12698,2.93095 -0.18533,3.68518c-0.05896,0.76178 -0.13022,1.5271 -0.20398,2.29349c-0.07358,0.76462 -0.15082,1.52386 -0.22202,2.27551c-0.07013,0.74036 -0.19174,2.17615 -0.23117,2.8665c-0.07532,1.31942 -0.08878,1.94993 -0.10065,2.56c-0.02258,1.15988 -0.02017,1.70999 -0.02084,3.24016c-0.00021,0.47118 0,1.3605 0,2.18584c0,0.76933 0,2.17067 0,2.81067c0,0.88499 -0.02307,1.92605 0.01068,2.62133c0.04425,0.91132 0.2757,1.91005 0.48932,2.74616c0.14902,0.58325 0.38412,1.77826 0.47467,2.65784c0.08301,0.8065 0.34409,1.83816 0.60001,2.472c0.35284,0.87393 0.40326,1.61024 0.42083,2.40116c0.02811,1.26386 -0.03744,1.95774 0.17115,3.11484c0.14331,0.79489 0.36447,1.32572 0.54934,2.14933c0.27326,1.21734 0.25995,1.87356 0.28415,2.88383c0.0231,0.96457 0.27756,1.74806 0.64719,2.49567c0.39425,0.79739 0.35266,1.7885 0.35266,2.65184c0,0.89999 0,1.81933 0,2.65266c0,0.97867 0,1.75267 0,2.65717c0,0.74733 -0.05451,1.74721 0.03601,2.54283c0.11496,1.01051 0.54599,1.77631 0.79733,2.8c0.1958,0.79744 0.1644,1.45717 0.16666,2.68401c0.00098,0.54132 0,1.36333 0,2.63199c0,0.684 0,1.85067 0,2.63217c0,0.7905 -0.09302,1.72626 0.02084,2.53101c0.14591,1.03102 0.61716,1.75201 0.8125,2.6875c0.16312,0.78118 0.15998,1.64395 0.16532,2.23466c0.0108,1.19862 -0.00043,2.10046 0.0585,2.69867c0.11877,1.20534 0.37768,2.0977 0.51752,2.7c0.27761,1.19575 0.36193,1.79733 0.40448,2.67917c0.04028,0.83474 0.02084,2.05915 0.02084,2.85916c0,0.90449 0,1.86033 0,2.71434l0.22134,0.82582" fill="none" id="svg_112" stroke="#000000" stroke-width="5"/>
  <path d="m173,40c0.96399,1.836 0.96875,2.60196 1.00449,3.6c0.02868,0.80122 0.30636,1.79246 0.57019,2.636c0.28833,0.92191 0.36929,1.72148 0.45065,2.57467c0.05636,0.5909 0.25201,1.78965 0.47467,2.66849c0.14306,0.56477 0.40927,1.8377 0.5,2.52084c0.15518,1.16824 0.35693,1.95607 0.5,2.52083c0.22265,0.87884 0.42175,2.08265 0.47467,2.71116c0.05685,0.67553 0.09024,1.42617 0.24682,2.7325c0.12095,1.00888 0.21274,1.54378 0.29935,2.09801c0.17996,1.15158 0.2807,1.74147 0.47916,2.9375c0.19888,1.19864 0.29822,1.79507 0.38934,2.38933c0.18002,1.17386 0.27823,1.7509 0.444,3.444c0.05328,0.54413 0.11444,1.60048 0.14133,2.10934c0.05151,0.97461 0.06885,1.89053 0.24667,3.11449c0.10706,0.73694 0.29538,1.41855 0.426,2.091c0.2655,1.36698 0.29998,2.10451 0.35266,2.85184c0.05267,0.74733 0.14383,1.8378 0.35266,2.84283c0.13287,0.63951 0.40167,1.54976 0.52585,2.45734c0.12396,0.90605 0.1149,1.5358 0.12149,2.8665c0.00357,0.71866 -0.0008,1.46979 0.03601,2.24399c0.0376,0.79132 0.17425,1.99164 0.32116,2.79834c0.15207,0.83487 0.34937,1.70491 0.44416,2.16166c0.30511,1.47048 0.4031,1.995 0.58801,3.06934c0.09271,0.53868 0.25928,1.59673 0.32532,2.10666c0.17962,1.38672 0.24652,2.17666 0.27466,3.18533c0.0307,1.10095 -0.05286,1.81778 0.06784,2.6635c0.14566,1.02077 0.57788,1.82579 0.77618,2.77118c0.16486,0.78603 0.17905,1.6813 0.25067,2.31999c0.11637,1.0374 0.27048,1.77016 0.41599,2.53417c0.1492,0.78332 0.34924,1.9777 0.41467,2.77917c0.06522,0.79886 0.07883,1.59996 0.08398,2.39999c0.00775,1.19965 -0.01831,1.99193 0.03736,3.12801c0.03442,0.70221 0.22656,1.90688 0.46399,2.6095c0.306,0.90553 0.49466,1.65179 0.5,2.58333c0.00552,0.96582 0,1.72584 0,2.64584c0,0.78599 0,1.608 0,2.66666c0,0.93067 0,1.76533 0,2.76667c0,0.79999 0,1.79999 0,2.59999c0,1 0,1.80001 0,2.80001c0,0.8 0,1.6 0,2.5955c0,0.74733 0,1.77916 0,2.726c0,0.69933 0,1.6785 0,2.4785c0,0.8 0,1.7955 0,2.71466c0,0.96451 0,1.78984 0,2.80667c0,0.67867 0,1.65717 0,2.47733c0,0.95851 -0.11673,1.8741 0.08532,2.71734c0.21521,0.89811 0.81168,1.642 0.89383,2.484c0.09506,0.97425 0.02085,1.75267 0.02085,2.65266c0,0.86334 0,1.82651 0,2.74733c0,0.90001 0,1.79868 0,2.65268c0,0.94733 0,1.78066 0,2.65183c0,0.85949 0,1.7315 0,2.69549c0,0.90001 0,1.8 0,2.70001c0,0.9 0,1.73332 -0.5,2.42082l-0.44284,0.77468l-0.05716,0.41784" fill="none" id="svg_113" stroke="#000000" stroke-width="3"/>
  <path d="m218,92c1.05716,0.64734 1.80139,1.01045 2.70001,1c0.84186,-0.0098 1.84848,-0.20311 2.55066,-0.436c0.75073,-0.24901 1.73993,-0.82668 2.44034,-1.20684c0.75314,-0.40877 1.4895,-0.81508 2.30899,-1.19049c0.74267,-0.34022 1.71466,-0.16667 2.61066,-0.16667c0.88934,0 1.78933,0 2.68933,0c0.89868,0 1.86667,0 2.70001,0c0.79999,0 1.77011,-0.02049 2.65268,-0.35266c0.7062,-0.26579 1.58435,-0.61875 2.51397,-0.64734c0.93293,-0.02869 1.84589,0.09149 2.59052,-0.05716c0.92474,-0.18462 1.55777,-0.72407 2.60684,-0.90685c0.82437,-0.14361 1.78488,0.13399 2.63599,-0.20266c0.70264,-0.27793 1.49832,-0.67813 2.34732,-0.886c0.91733,-0.22461 1.6579,-0.76339 2.40985,-1c0.90225,-0.28391 1.59052,-0.6513 2.49017,-1.24283c0.63691,-0.41878 1.59888,-0.58762 2.26865,-0.7885c1.013,-0.30383 1.50217,-1.12303 2.18402,-1.55884c0.82397,-0.52664 1.64572,-0.88458 2.5,-1.27316c0.76309,-0.34712 1.50046,-0.7303 2.29999,-1.084c0.80496,-0.35611 1.66253,-1.00687 2.32535,-1.4c0.68646,-0.40716 1.42038,-0.89688 2.17465,-1.6c0.60232,-0.56151 1.44131,-0.88387 2.20001,-1.284c0.85837,-0.45271 1.57278,-0.78291 1.79999,-1.66333c0.22528,-0.87294 1.08041,-0.97363 1.57467,-1.66334c0.51267,-0.71538 0.27967,-1.75072 0.71067,-2.59067c0.31781,-0.61939 0.96753,-1.4718 1.35748,-2.08882c0.3233,-0.51155 0.78754,-0.06198 1.27185,0.5755c0.55573,0.73147 0.08032,1.81451 0.08533,2.66649c0.00534,0.90954 0.04355,1.58461 0.5,2.52734c0.40643,0.83946 0.5,1.72083 0.5,2.621c0,0.78516 0,1.72516 0,2.41584c0,0.98399 0,1.96798 0,2.83133c0,0.89549 0,1.85266 0,2.75266c0,0.9 0.09561,1.69402 0.5,2.4c0.4545,0.79344 0.5,1.7 0.5,2.60033c0,0.87034 0,1.669 0,2.4205c0,1.3125 0,2.0175 0,2.8175c0,1.015 0,1.94834 0,2.82834c0,0.85416 0,1.83333 0,2.63333c0,0.80001 0,1.7955 0,2.54283c0,1.02117 0,1.85851 0,2.82384c0,0.83333 0.09296,1.82456 -0.05716,2.586c-0.18405,0.93358 -0.67532,1.63278 -0.85751,2.64732c-0.14203,0.79084 -0.08533,1.80001 -0.08533,2.60001c0,1 0,1.78934 0,2.51466c0,0.98534 0,1.97068 0,2.696c0,0.98934 0,1.78934 0,2.78934c0,0.8 0,1.60001 0,2.5955c0,0.74733 0,1.7685 0,2.7045c0,0.9 -0.00452,1.80019 0,2.58533c0.00534,0.92938 0.48761,1.64021 0.91467,2.40001c0.40137,0.71405 -0.08822,1.75291 0.17066,2.51466c0.30176,0.88793 0.74475,1.60431 0.91916,2.55716c0.15985,0.87346 0.84735,1.41146 0.99102,2.34284c0.13721,0.88949 0.00241,1.77917 0.00449,2.65716c0.00226,0.94286 0.33688,1.67411 0.716,2.44284c0.41681,0.84522 0.284,1.764 0.284,2.64284c0,0.74249 -0.14844,1.85402 0.22134,2.65717c0.35846,0.77858 0.77332,1.49995 0.77866,2.39999c0.00528,0.88931 0.13296,1.9756 -0.44666,2.48534c-0.74136,0.65196 -1.37551,0.8925 -1.95785,1.3665c-0.97186,0.79104 -1.60492,1.08064 -2.42883,1.64816c-0.67261,0.46332 -1.28806,1.30757 -1.96665,1.71466c-0.73596,0.4415 -1.63818,0.68982 -2.11734,1.48534c-0.46524,0.77241 -1.1358,1.25097 -1.91601,1.8c-0.65458,0.46062 -0.87323,1.57205 -1.60266,1.96401c-0.76587,0.41154 -1.7764,0.11224 -2.54316,0.55682c-0.8392,0.48657 -1.12225,1.36797 -1.88217,1.8685c-0.61151,0.40279 -1.6741,0.30472 -2.52801,0.62134c-0.73371,0.27205 -1.23117,0.87289 -2.1315,1.01016c-0.98743,0.15054 -1.68976,0.53516 -2.45765,1.07918c-0.6441,0.45633 -1.2611,1.30472 -1.90686,1.61465c-0.87927,0.42202 -1.95178,0.44477 -2.59381,0.78534c-0.8258,0.43807 -1.67025,0.87999 -2.40619,1.21601c-0.74197,0.33877 -1.6499,0.34271 -2.75714,0.72666c-0.6697,0.23224 -1.33343,0.56464 -1.99502,0.85199c-1.09281,0.47464 -2.00016,0.60412 -2.76248,1.14135c-0.78867,0.5558 -1.15726,1.20985 -1.9,1.85949c-0.66446,0.5812 -1.51834,0.75957 -2.22085,1.22533c-0.82352,0.54599 -1.47318,1.04385 -2.47916,1.3125c-0.78488,0.20961 -1.6134,0.20502 -2.60001,0.51933c-0.60955,0.1942 -1.60092,0.52016 -2.39999,0.64734c-1.00119,0.15935 -1.78384,0.47431 -2.60001,0.716c-0.98416,0.29145 -1.61746,0.23507 -2.59982,0.50535c-0.798,0.21954 -1.77466,0.6885 -2.59885,0.77731c-0.8413,0.09064 -1.36126,0.8728 -2.20132,1.00134c-0.79526,0.12168 -1.5372,0.74695 -2.39999,0.96399c-0.87351,0.21973 -1.89194,0.2677 -2.69983,-0.18567c-0.66782,-0.37475 -0.81473,-1.44086 -0.95285,-2.18283c-0.18726,-1.00604 -0.53101,-1.59521 -0.78067,-2.76216c-0.16602,-0.77603 -0.16132,-1.60796 -0.16666,-2.66666c-0.00357,-0.70948 0,-1.56216 0,-2.56666c0,-0.80001 0,-1.80001 0,-2.60001c0,-1 0,-1.81067 0,-2.45717c0,-1.22683 0,-2.04283 0,-2.85882c0,-0.99735 0,-1.83734 0,-2.80001c0,-0.768 0,-1.72 0,-2.48533c0,-0.99867 0.02097,-1.79891 -0.00134,-2.79866c-0.01788,-0.80055 -0.21585,-1.80146 -0.49866,-2.60001c-0.21289,-0.60112 -0.46738,-1.59877 -0.49551,-2.39999c-0.0351,-0.99939 -0.00449,-1.80001 -0.00449,-2.79984c0,-0.77934 0,-1.77884 0,-2.68417c0,-0.952 0.03058,-1.71794 -0.00448,-2.716c-0.02814,-0.80123 -0.29581,-1.79589 -0.49552,-2.42083c-0.36325,-1.13671 -0.45474,-1.93569 -0.47915,-2.5c-0.03809,-0.87989 -0.02085,-2.07917 -0.02085,-2.67917c0,-0.9 0,-2.09983 0,-2.98933c0,-0.57468 0,-1.644 0,-2.57468c0,-0.83465 0,-1.836 0,-2.63598c0,-1 0,-1.80001 0,-2.80001c0,-0.8 0.02374,-1.80065 -0.01068,-2.61067c-0.02753,-0.64758 -0.2045,-1.61226 -0.41464,-2.41466c-0.2157,-0.82368 -0.4942,-1.84953 -0.55383,-2.75384c-0.0672,-1.01883 -0.02085,-1.82083 -0.02085,-2.62083c0,-0.9955 0,-1.74283 0,-2.764c0,-0.9405 0,-1.80267 0,-2.636c0,-0.9785 0,-1.79866 0,-2.7c0,-0.82083 0,-1.78666 0,-2.54667c0,-0.92 0,-1.706 0,-2.528c0,-1.05866 0,-1.97866 0,-2.73867c0,-1.076 0,-1.98666 0,-2.87599l0,-0.89601l0.00134,-0.91333" fill="none" id="svg_114" stroke="#4c4c4c" stroke-width="3"/>
  <path d="m182,102c0.91599,0.28667 1.10617,1.19528 1.436,1.81467c0.48029,0.90185 1.23291,1.29342 1.64801,1.98666c0.47617,0.79517 1.27585,1.20622 1.94132,1.77333c0.59708,0.50882 1.18484,1.16567 1.97467,1.59201c0.68253,0.36846 1.31223,0.95003 2.02084,1.33333c0.96705,0.52307 1.74805,0.93939 2.49384,1.21466c0.83041,0.3065 1.78082,0.28534 2.707,0.28534c0.94498,0 1.61432,0 2.77832,0c0.78934,0 1.51468,0 2.47916,0c0.92083,0 1.82083,0 2.71951,0c0.88666,0 1.7586,-0.282 1.80133,-1.09984c0.04828,-0.92422 0.22134,-1.77865 0.99866,-1.98549l0.168,-0.91467l0.40802,-0.60001l0.40448,-0.87916" fill="none" id="svg_115" stroke="#4c4c4c" stroke-width="3"/>
  <ellipse cx="188" cy="119" fill="none" id="svg_116" rx="9" ry="5" stroke="#bf00bf" stroke-width="2"/>
  <ellipse cx="189" cy="185" fill="none" id="svg_117" rx="9" ry="5" stroke="#bf00bf" stroke-width="2"/>
  <line fill="none" id="svg_119" stroke="#bf00bf" stroke-width="2" x1="180" x2="180" y1="118" y2="181"/>
  <line fill="none" id="svg_120" stroke="#bf00bf" stroke-width="2" x1="197" x2="198" y1="120" y2="185"/>
  <ellipse cx="282.5" cy="76" fill="none" id="svg_124" rx="9" ry="5" stroke="#bf00bf" stroke-width="2"/>
  <ellipse cx="283.5" cy="142" fill="none" id="svg_123" rx="9" ry="5" stroke="#bf00bf" stroke-width="2"/>
  <line fill="none" id="svg_122" stroke="#bf00bf" stroke-width="2" x1="274.5" x2="274.5" y1="75" y2="138"/>
  <line fill="none" id="svg_121" stroke="#bf00bf" stroke-width="2" x1="291.5" x2="292.5" y1="77" y2="142"/>
  <ellipse cx="204.5" cy="158" fill="none" id="svg_128" rx="9" ry="5" stroke="#00bf00" stroke-width="2"/>
  <ellipse cx="205.5" cy="190" fill="none" id="svg_127" rx="9" ry="5" stroke="#00bf00" stroke-width="2"/>
  <line fill="none" id="svg_126" stroke="#00bf00" stroke-width="2" x1="196.5" x2="196.5" y1="158.000003" y2="192.000004"/>
  <line fill="none" id="svg_129" stroke="#00bf00" stroke-width="2" x1="214" x2="214" y1="159.000003" y2="193.000004"/>
  <path d="m222,134c0,1.02083 -0.00116,1.97884 0,2.80983c0.00134,0.9595 -0.04428,1.72977 0.17065,2.50751c0.28629,1.03596 0.89441,1.64566 1.26136,2.36667c0.48807,0.959 0.54474,1.81532 0.56534,2.63199c0.02517,0.99835 0.00265,1.87333 0.00265,2.88417c0,0.82066 0,1.48516 0,2.48384c0,0.81599 0,1.63199 0,2.63066c0,0.87466 -0.04736,1.88797 0.02084,2.68533c0.08613,1.0069 0.45481,1.78348 0.69516,2.60001c0.28833,0.97946 0.28095,1.74283 0.284,2.76399c0.0025,0.836 0.30087,1.68683 0.64734,2.336c0.45334,0.84938 0.35266,1.8 0.35266,2.68933c0,0.89467 0,1.83234 0,2.77734c0,0.65866 0,1.66666 0,2.52883c0,0.90451 0,1.78367 0,2.74051c0,0.85949 -0.41531,1.51326 -0.233,1.21133c0.43158,-0.71469 1.74902,-0.59473 2.55432,-0.86867c0.87439,-0.29744 1.65299,-0.69034 2.47736,-0.77734c0.89825,-0.09479 1.6445,-0.62471 2.51031,-0.94866c0.98114,-0.36709 1.69394,-0.41355 2.44034,-0.62733c1.10409,-0.31621 1.70904,-0.61105 2.24933,-1.14134c0.52307,-0.5134 1.14242,-1.12052 2.02218,-1.26317c0.94538,-0.15329 1.88691,0.14668 2.68366,-0.07799c0.76651,-0.21614 1.61978,-0.80603 2.2955,-0.94284c0.98328,-0.19908 1.6427,-0.76338 2.39999,-1.38933c0.65821,-0.54403 1.27793,-0.98535 1.68534,-1.69467c0.41693,-0.72588 1.68234,-0.8414 1.91018,-1.56334c0.2775,-0.87926 0.00449,-1.7045 0.00449,-2.71666c0,-0.936 0.07486,-1.85109 -0.08533,-2.52133c-0.23239,-0.97221 -0.74987,-1.6058 -0.89383,-2.59384c-0.13278,-0.91144 -0.02084,-1.82083 -0.02084,-2.72083c0,-0.90001 0,-1.8 0,-2.6c0,-0.95717 0,-1.85266 0,-2.54734c0,-1.02732 0,-1.974 0,-2.82733c0,-0.94 0,-1.82533 0,-2.62533c0,-0.9 0.10223,-1.80803 -0.02084,-2.72083c-0.11026,-0.81784 -0.66785,-1.62016 -0.89383,-2.59517c-0.17444,-0.75262 -0.08533,-1.70933 -0.08533,-2.40001c0,-1.07333 0,-1.98399 0,-2.87332c0,-0.89601 0,-1.81067 0,-2.71068c0,-0.89999 0,-1.73332 0,-2.60449c0,-0.89551 0,-1.77467 0,-2.65266c0,-0.94284 0,-1.84151 0,-2.69551c0,-0.94733 -0.30472,-1.59879 -0.80133,-1.14466c-0.72846,0.66614 -1.39676,1.39925 -1.89868,1.89733c-0.69733,0.69201 -1.53958,1.11366 -2.29999,1.46667c-0.81348,0.37766 -1.66257,0.74767 -2.40451,0.886c-1.00345,0.18709 -1.73245,0.60776 -2.57416,0.82582c-0.75775,0.19632 -1.69409,0.00478 -2.53732,0.20684c-0.8981,0.21521 -1.80032,0.83609 -2.48401,0.89384c-0.97522,0.08238 -2.02976,-0.13183 -2.70001,0.07799c-0.88242,0.27623 -1.42139,1.25041 -2.09998,1.6575c-0.73596,0.4415 -1.59445,0.71985 -2.39868,1.20134c-0.74362,0.44519 -1.30133,1.084 -1.82666,1.65866l-0.69067,0.50934" fill="none" id="svg_130" stroke="#bfbf00" stroke-width="2"/>
  <path d="m255,161c-1,-0.97467 -1,-1.80133 -1,-2.71466c0,-0.89601 0,-1.78534 0,-2.67467c0,-0.89467 0,-1.83217 0,-2.71068c0,-0.89999 0,-1.65716 0,-2.55265c0,-0.86335 0,-1.82651 0,-2.73667c0,-0.89601 0,-1.81067 0,-2.71068c0,-0.89999 0,-1.77865 0,-2.61599c0,-0.85866 0,-1.784 0,-2.64116c0,-0.93834 0,-1.86417 0,-2.72684c0,-0.33067 0.37671,-0.25419 1,-0.916c0.58279,-0.61882 0.71545,-1.54382 1.05267,-2.29016c0.3649,-0.80762 1.50705,-0.39993 2.33667,-0.7205c0.79291,-0.30639 1.1409,-1.10256 1.61081,-1.868c0.42414,-0.69086 1.32498,-0.93982 2.16919,-1.20667c0.74433,-0.23527 1.42328,-0.67929 2.43067,-0.862c0.79394,-0.14399 1.79605,-0.34365 2.56399,-0.62733c0.94751,-0.34999 1.80426,-0.64313 2.43601,-1c0.84262,-0.47597 1.61682,-0.81241 2.39999,-1.25867c0.77982,-0.44435 1.21524,-1.10577 2.10001,-1.16667c0.89785,-0.0618 1.83038,0.39305 2.61465,-0.08533c0.80362,-0.49019 0.8743,-1.77891 1.71066,-1.86801c0.72498,-0.07724 0.57468,1.35334 0.57468,2.25334c0,0.89867 0,1.86667 0,2.7c0,0.8 0,1.75717 0,2.65267c0,0.86334 0,1.8265 0,2.64733c0,0.89867 0,1.86667 0,2.7c0,0.8 0,1.7 0,2.60001c0,0.96399 0,1.836 0,2.69549c0,0.87383 -0.18326,1.81026 0.35266,2.59467c0.46231,0.6767 0.4863,1.60406 0.93134,2.11116c0.52264,0.59553 0.09918,0.90797 -0.69468,1.00934c-0.92715,0.11838 -1.73593,0.65236 -2.56781,0.86783c-0.80246,0.20784 -1.4505,0.49212 -2.24301,1c-0.74673,0.47853 -1.74307,0.34957 -2.41449,0.69616c-0.81228,0.41931 -1.75418,0.37195 -2.60684,0.778c-0.80972,0.38561 -1.56772,0.54581 -2.39316,0.68334c-0.87313,0.14546 -1.57315,0.57777 -2.56384,1.06384c-0.77814,0.38177 -1.63907,0.71188 -2.42551,0.92549c-0.86541,0.23506 -1.56393,0.51155 -2.488,0.89067c-0.8169,0.33515 -1.32212,1.06535 -2.18665,1.084c-0.89981,0.0194 -1.80002,0.2215 -2.40002,0.7045l-0.69999,0.69549" fill="none" id="svg_132" stroke="#bf5f00" stroke-width="2"/>
  <path fill="none" id="svg_134" opacity="0.5" stroke="#000000" stroke-width="2"/>
  <text fill="#000000" font-family="Sans-serif" font-size="24" id="svg_135" stroke="#000000" stroke-width="0" text-anchor="middle" transform="matrix(1, 0, 0, 1, 0, 0)" x="74" xml:space="preserve" y="242">inner</text>
  <text fill="#000000" font-family="Sans-serif" font-size="24" id="svg_136" stroke="#000000" stroke-width="0" text-anchor="middle" x="234" xml:space="preserve" y="240">outer</text>
 </g>
</svg>